# This file uses centimeters as units for non-parametric coordinates.

mtllib medusacrest.mtl
g default
v 1.092188 1.354509 -0.145883
v 0.929065 1.674642 -0.145884
v 0.675002 1.928706 -0.145884
v 0.354870 2.091826 -0.145884
v -0.000002 2.148029 -0.145883
v -0.354873 2.091826 -0.145884
v -0.675007 1.928706 -0.145884
v -0.929071 1.674642 -0.145884
v -1.092190 1.354509 -0.145883
v -1.148392 0.999638 -0.145883
v -1.092190 0.644767 -0.145884
v -0.929071 0.324637 -0.145883
v -0.675007 0.070570 -0.145883
v -0.354873 -0.092551 -0.145884
v -0.000002 -0.148757 -0.145884
v 0.354870 -0.092551 -0.145884
v 0.675001 0.070570 -0.145883
v 0.929063 0.324637 -0.145883
v 1.092188 0.644767 -0.145884
v 1.148392 0.999638 -0.145883
v -0.000002 0.999638 -0.145883
v -0.000002 0.999638 0.145882
v 0.885681 1.287413 0.144364
v 0.976788 1.317020 0.104677
v 1.092188 1.354509 0.000015
v 0.753397 1.547014 0.144363
v 0.830912 1.603331 0.104676
v 0.929065 1.674642 0.000015
v 0.547380 1.753035 0.144363
v 0.603693 1.830556 0.104676
v 0.675002 1.928709 0.000014
v 0.287774 1.885318 0.144364
v 0.317382 1.976429 0.104676
v 0.354870 2.091827 0.000014
v -0.000001 1.930900 0.144365
v -0.000001 2.026709 0.104676
v -0.000002 2.148031 0.000014
v -0.287775 1.885318 0.144364
v -0.317382 1.976429 0.104676
v -0.354873 2.091827 0.000014
v -0.547379 1.753035 0.144363
v -0.603697 1.830556 0.104676
v -0.675007 1.928709 0.000014
v -0.753400 1.547014 0.144363
v -0.830921 1.603331 0.104676
v -0.929071 1.674641 0.000015
v -0.885682 1.287413 0.144364
v -0.976797 1.317020 0.104677
v -1.092190 1.354509 0.000015
v -0.931262 0.999638 0.144364
v -1.027067 0.999638 0.104676
v -1.148392 0.999638 0.000015
v -0.885682 0.711861 0.144364
v -0.976797 0.682255 0.104676
v -1.092190 0.644767 0.000014
v -0.753400 0.452258 0.144364
v -0.830921 0.395942 0.104676
v -0.929071 0.324633 0.000014
v -0.547379 0.246240 0.144365
v -0.603697 0.168723 0.104676
v -0.675007 0.070570 0.000015
v -0.287775 0.113958 0.144364
v -0.317382 0.022846 0.104676
v -0.354873 -0.092553 0.000015
v -0.000001 0.068375 0.144364
v -0.000001 -0.027438 0.104676
v -0.000002 -0.148758 0.000015
v 0.287774 0.113958 0.144364
v 0.317381 0.022848 0.104676
v 0.354870 -0.092553 0.000015
v 0.547380 0.246240 0.144365
v 0.603693 0.168723 0.104676
v 0.675001 0.070570 0.000015
v 0.753397 0.452259 0.144364
v 0.830912 0.395942 0.104676
v 0.929063 0.324634 0.000014
v 0.885680 0.711861 0.144364
v 0.976786 0.682255 0.104676
v 1.092188 0.644767 0.000014
v 0.931262 0.999638 0.144364
v 1.027074 0.999638 0.104676
v 1.148392 0.999638 0.000015
vt 0.915815 0.624327
vt 0.857224 0.739313
vt 0.857224 0.739313
vt 0.915815 0.624327
vt 0.765969 0.830568
vt 0.765969 0.830569
vt 0.650984 0.889158
vt 0.650984 0.889158
vt 0.523520 0.909345
vt 0.523520 0.909346
vt 0.396057 0.889158
vt 0.396057 0.889158
vt 0.281071 0.830568
vt 0.281071 0.830569
vt 0.189815 0.739313
vt 0.189815 0.739313
vt 0.131226 0.624327
vt 0.131226 0.624327
vt 0.111039 0.496864
vt 0.111039 0.496864
vt 0.131226 0.369401
vt 0.131226 0.369401
vt 0.189815 0.254417
vt 0.189815 0.254415
vt 0.281071 0.163160
vt 0.281071 0.163160
vt 0.396057 0.104571
vt 0.396057 0.104570
vt 0.523520 0.084383
vt 0.523520 0.084382
vt 0.650984 0.104571
vt 0.650984 0.104570
vt 0.765969 0.163161
vt 0.765969 0.163160
vt 0.857223 0.254417
vt 0.857223 0.254416
vt 0.915815 0.369401
vt 0.915815 0.369401
vt 0.936003 0.496864
vt 0.936003 0.496864
vt 0.523520 0.496864
vt 0.841641 0.600228
vt 0.794127 0.693471
vt 0.523520 0.496864
vt 0.720130 0.767471
vt 0.626884 0.814984
vt 0.523520 0.831356
vt 0.420157 0.814984
vt 0.326912 0.767471
vt 0.252913 0.693471
vt 0.205400 0.600228
vt 0.189028 0.496864
vt 0.205400 0.393500
vt 0.252913 0.300256
vt 0.326912 0.226258
vt 0.420157 0.178745
vt 0.523520 0.162372
vt 0.626884 0.178745
vt 0.720130 0.226258
vt 0.794127 0.300256
vt 0.841641 0.393500
vt 0.858013 0.496864
vt 0.874366 0.610862
vt 0.892427 0.496864
vt 0.821970 0.713700
vt 0.740356 0.795314
vt 0.637519 0.847709
vt 0.523520 0.865769
vt 0.409523 0.847709
vt 0.306684 0.795314
vt 0.225069 0.713700
vt 0.172673 0.610862
vt 0.154617 0.496864
vt 0.172673 0.382866
vt 0.225069 0.280028
vt 0.306684 0.198415
vt 0.409523 0.146019
vt 0.523520 0.127958
vt 0.637518 0.146020
vt 0.740356 0.198415
vt 0.821969 0.280028
vt 0.874365 0.382866
vn 0.951054 0.309024 -0.000000
vn 0.809013 0.587791 -0.000003
vn 0.738527 0.536574 0.408247
vn 0.868187 0.282098 0.408254
vn 0.587793 0.809011 -0.000009
vn 0.536577 0.738528 0.408242
vn 0.309018 0.951056 -0.000011
vn 0.282091 0.868191 0.408252
vn 0.000000 1.000000 -0.000010
vn -0.000000 0.912866 0.408259
vn -0.309018 0.951056 -0.000011
vn -0.282091 0.868190 0.408254
vn -0.587793 0.809012 -0.000008
vn -0.536575 0.738529 0.408243
vn -0.809015 0.587788 -0.000002
vn -0.738530 0.536576 0.408240
vn -0.951057 0.309015 0.000000
vn -0.868192 0.282090 0.408249
vn -1.000000 -0.000000 -0.000000
vn -0.912867 -0.000001 0.408257
vn -0.951057 -0.309017 -0.000003
vn -0.868193 -0.282090 0.408248
vn -0.809015 -0.587788 -0.000007
vn -0.738529 -0.536578 0.408238
vn -0.587793 -0.809011 -0.000007
vn -0.536576 -0.738527 0.408245
vn -0.309024 -0.951054 -0.000009
vn -0.282098 -0.868188 0.408254
vn 0.000000 -1.000000 -0.000011
vn 0.000001 -0.912868 0.408256
vn 0.309025 -0.951054 -0.000009
vn 0.282097 -0.868188 0.408254
vn 0.587795 -0.809010 -0.000008
vn 0.536578 -0.738527 0.408243
vn 0.809013 -0.587791 -0.000006
vn 0.738527 -0.536577 0.408243
vn 0.951054 -0.309026 -0.000002
vn 0.868187 -0.282099 0.408255
vn 1.000000 -0.000000 0.000000
vn 0.912866 -0.000001 0.408259
vn 0.000000 -0.000000 -1.000000
vn 0.000000 -0.000000 -1.000000
vn -0.000000 -0.000000 -1.000000
vn -0.000000 -0.000001 -1.000000
vn -0.000001 -0.000001 -1.000000
vn 0.000000 -0.000000 -1.000000
vn 0.000001 -0.000000 -1.000000
vn 0.000000 -0.000000 -1.000000
vn -0.000000 -0.000001 -1.000000
vn -0.000000 -0.000001 -1.000000
vn 0.000000 -0.000000 -1.000000
vn 0.000000 0.000001 -1.000000
vn 0.000000 0.000000 -1.000000
vn -0.000001 -0.000001 -1.000000
vn -0.000001 0.000000 -1.000000
vn 0.000000 0.000000 -1.000000
vn 0.000001 -0.000000 -1.000000
vn 0.000001 -0.000000 -1.000000
vn -0.000000 -0.000000 -1.000000
vn -0.000000 -0.000000 -1.000000
vn 0.000000 -0.000000 -1.000000
vn 0.082844 0.026921 0.996199
vn 0.070469 0.051199 0.996199
vn -0.000000 0.000000 1.000000
vn 0.051201 0.070470 0.996199
vn 0.026921 0.082846 0.996199
vn -0.000000 0.087111 0.996199
vn -0.026921 0.082845 0.996199
vn -0.051200 0.070469 0.996199
vn -0.070469 0.051199 0.996199
vn -0.082843 0.026918 0.996199
vn -0.087108 -0.000001 0.996199
vn -0.082845 -0.026918 0.996199
vn -0.070472 -0.051198 0.996199
vn -0.051200 -0.070470 0.996199
vn -0.026919 -0.082845 0.996199
vn 0.000000 -0.087109 0.996199
vn 0.026919 -0.082844 0.996199
vn 0.051201 -0.070470 0.996199
vn 0.070472 -0.051199 0.996199
vn 0.082846 -0.026919 0.996199
vn 0.087108 0.000001 0.996199
vn 0.649719 0.102919 0.753175
vn 0.649719 0.102919 0.753175
vn 0.382009 0.060517 0.922175
vn 0.382009 0.060517 0.922175
vn 0.344605 0.175591 0.922180
vn 0.344605 0.175591 0.922179
vn 0.586118 0.298645 0.753178
vn 0.586118 0.298645 0.753178
vn 0.273468 0.273459 0.922191
vn 0.273468 0.273459 0.922191
vn 0.465167 0.465158 0.753159
vn 0.465167 0.465158 0.753159
vn 0.175584 0.344605 0.922181
vn 0.175584 0.344605 0.922181
vn 0.298637 0.586125 0.753175
vn 0.298638 0.586125 0.753175
vn 0.060516 0.382031 0.922166
vn 0.060516 0.382031 0.922166
vn 0.102913 0.649712 0.753182
vn 0.102913 0.649712 0.753182
vn -0.060516 0.382024 0.922169
vn -0.060516 0.382023 0.922169
vn -0.102913 0.649712 0.753182
vn -0.102913 0.649712 0.753182
vn -0.175581 0.344600 0.922183
vn -0.175581 0.344600 0.922183
vn -0.298635 0.586123 0.753178
vn -0.298635 0.586123 0.753178
vn -0.273456 0.273451 0.922197
vn -0.273456 0.273451 0.922197
vn -0.465166 0.465163 0.753156
vn -0.465166 0.465163 0.753156
vn -0.344588 0.175584 0.922187
vn -0.344588 0.175584 0.922187
vn -0.586130 0.298650 0.753167
vn -0.586130 0.298650 0.753167
vn -0.382009 0.060504 0.922176
vn -0.382009 0.060504 0.922176
vn -0.649721 0.102901 0.753176
vn -0.649721 0.102901 0.753176
vn -0.382015 -0.060509 0.922173
vn -0.382015 -0.060509 0.922173
vn -0.649720 -0.102905 0.753177
vn -0.649720 -0.102905 0.753177
vn -0.344600 -0.175577 0.922184
vn -0.344600 -0.175577 0.922184
vn -0.586133 -0.298645 0.753166
vn -0.586133 -0.298645 0.753166
vn -0.273465 -0.273465 0.922190
vn -0.273465 -0.273465 0.922190
vn -0.465160 -0.465166 0.753158
vn -0.465160 -0.465166 0.753158
vn -0.175587 -0.344606 0.922180
vn -0.175587 -0.344606 0.922180
vn -0.298640 -0.586116 0.753181
vn -0.298640 -0.586116 0.753181
vn -0.060516 -0.382003 0.922178
vn -0.060516 -0.382003 0.922178
vn -0.102919 -0.649712 0.753181
vn -0.102919 -0.649713 0.753181
vn 0.060518 -0.382002 0.922178
vn 0.060518 -0.382002 0.922178
vn 0.102920 -0.649714 0.753180
vn 0.102920 -0.649714 0.753180
vn 0.175590 -0.344614 0.922177
vn 0.175590 -0.344614 0.922177
vn 0.298639 -0.586117 0.753181
vn 0.298639 -0.586117 0.753181
vn 0.273477 -0.273469 0.922185
vn 0.273477 -0.273469 0.922185
vn 0.465166 -0.465162 0.753157
vn 0.465166 -0.465162 0.753157
vn 0.344619 -0.175588 0.922175
vn 0.344619 -0.175588 0.922175
vn 0.586120 -0.298642 0.753178
vn 0.586120 -0.298642 0.753178
vn 0.382017 -0.060519 0.922172
vn 0.382017 -0.060519 0.922171
vn 0.649714 -0.102923 0.753179
vn 0.649714 -0.102923 0.753179
s 1
g pCylinder1
usemtl initialShadingGroup
f 1/1/1 2/2/2 28/3/3 25/4/4
f 2/2/2 3/5/5 31/6/6 28/3/3
f 3/5/5 4/7/7 34/8/8 31/6/6
f 4/7/7 5/9/9 37/10/10 34/8/8
f 5/9/9 6/11/11 40/12/12 37/10/10
f 6/11/11 7/13/13 43/14/14 40/12/12
f 7/13/13 8/15/15 46/16/16 43/14/14
f 8/15/15 9/17/17 49/18/18 46/16/16
f 9/17/17 10/19/19 52/20/20 49/18/18
f 10/19/19 11/21/21 55/22/22 52/20/20
f 11/21/21 12/23/23 58/24/24 55/22/22
f 12/23/23 13/25/25 61/26/26 58/24/24
f 13/25/25 14/27/27 64/28/28 61/26/26
f 14/27/27 15/29/29 67/30/30 64/28/28
f 15/29/29 16/31/31 70/32/32 67/30/30
f 16/31/31 17/33/33 73/34/34 70/32/32
f 17/33/33 18/35/35 76/36/36 73/34/34
f 18/35/35 19/37/37 79/38/38 76/36/36
f 19/37/37 20/39/39 82/40/40 79/38/38
f 20/39/39 1/1/1 25/4/4 82/40/40
s 2
f 2/2/41 1/1/42 21/41/43
f 3/5/44 2/2/41 21/41/43
f 4/7/45 3/5/44 21/41/43
f 5/9/46 4/7/45 21/41/43
f 6/11/47 5/9/46 21/41/43
f 7/13/48 6/11/47 21/41/43
f 8/15/49 7/13/48 21/41/43
f 9/17/50 8/15/49 21/41/43
f 10/19/51 9/17/50 21/41/43
f 11/21/52 10/19/51 21/41/43
f 12/23/53 11/21/52 21/41/43
f 13/25/54 12/23/53 21/41/43
f 14/27/55 13/25/54 21/41/43
f 15/29/56 14/27/55 21/41/43
f 16/31/57 15/29/56 21/41/43
f 17/33/58 16/31/57 21/41/43
f 18/35/59 17/33/58 21/41/43
f 19/37/60 18/35/59 21/41/43
f 20/39/61 19/37/60 21/41/43
f 1/1/42 20/39/61 21/41/43
s 3
f 23/42/62 26/43/63 22/44/64
f 26/43/63 29/45/65 22/44/64
f 29/45/65 32/46/66 22/44/64
f 32/46/66 35/47/67 22/44/64
f 35/47/67 38/48/68 22/44/64
f 38/48/68 41/49/69 22/44/64
f 41/49/69 44/50/70 22/44/64
f 44/50/70 47/51/71 22/44/64
f 47/51/71 50/52/72 22/44/64
f 50/52/72 53/53/73 22/44/64
f 53/53/73 56/54/74 22/44/64
f 56/54/74 59/55/75 22/44/64
f 59/55/75 62/56/76 22/44/64
f 62/56/76 65/57/77 22/44/64
f 65/57/77 68/58/78 22/44/64
f 68/58/78 71/59/79 22/44/64
f 71/59/79 74/60/80 22/44/64
f 74/60/80 77/61/81 22/44/64
f 77/61/81 80/62/82 22/44/64
f 80/62/82 23/42/62 22/44/64
s 1
f 25/4/4 24/63/83 81/64/84 82/40/40
s 3
f 24/63/85 23/42/62 80/62/82 81/64/86
f 23/42/62 24/63/87 27/65/88 26/43/63
s 1
f 24/63/89 25/4/4 28/3/3 27/65/90
s 3
f 26/43/63 27/65/91 30/66/92 29/45/65
s 1
f 27/65/93 28/3/3 31/6/6 30/66/94
s 3
f 29/45/65 30/66/95 33/67/96 32/46/66
s 1
f 30/66/97 31/6/6 34/8/8 33/67/98
s 3
f 32/46/66 33/67/99 36/68/100 35/47/67
s 1
f 33/67/101 34/8/8 37/10/10 36/68/102
s 3
f 35/47/67 36/68/103 39/69/104 38/48/68
s 1
f 36/68/105 37/10/10 40/12/12 39/69/106
s 3
f 38/48/68 39/69/107 42/70/108 41/49/69
s 1
f 39/69/109 40/12/12 43/14/14 42/70/110
s 3
f 41/49/69 42/70/111 45/71/112 44/50/70
s 1
f 42/70/113 43/14/14 46/16/16 45/71/114
s 3
f 44/50/70 45/71/115 48/72/116 47/51/71
s 1
f 45/71/117 46/16/16 49/18/18 48/72/118
s 3
f 47/51/71 48/72/119 51/73/120 50/52/72
s 1
f 48/72/121 49/18/18 52/20/20 51/73/122
s 3
f 50/52/72 51/73/123 54/74/124 53/53/73
s 1
f 51/73/125 52/20/20 55/22/22 54/74/126
s 3
f 53/53/73 54/74/127 57/75/128 56/54/74
s 1
f 54/74/129 55/22/22 58/24/24 57/75/130
s 3
f 56/54/74 57/75/131 60/76/132 59/55/75
s 1
f 57/75/133 58/24/24 61/26/26 60/76/134
s 3
f 59/55/75 60/76/135 63/77/136 62/56/76
s 1
f 60/76/137 61/26/26 64/28/28 63/77/138
s 3
f 62/56/76 63/77/139 66/78/140 65/57/77
s 1
f 63/77/141 64/28/28 67/30/30 66/78/142
s 3
f 65/57/77 66/78/143 69/79/144 68/58/78
s 1
f 66/78/145 67/30/30 70/32/32 69/79/146
s 3
f 68/58/78 69/79/147 72/80/148 71/59/79
s 1
f 69/79/149 70/32/32 73/34/34 72/80/150
s 3
f 71/59/79 72/80/151 75/81/152 74/60/80
s 1
f 72/80/153 73/34/34 76/36/36 75/81/154
s 3
f 74/60/80 75/81/155 78/82/156 77/61/81
s 1
f 75/81/157 76/36/36 79/38/38 78/82/158
s 3
f 77/61/81 78/82/159 81/64/160 80/62/82
s 1
f 78/82/161 79/38/38 82/40/40 81/64/162
